# AST/ASF file generated using VICON BodyLanguage
# -----------------------------------------------
:version 1.10
:name VICON
:units
  mass 1.0
  length 0.45
  angle deg
:documentation
   .ast/.asf automatically generated from VICON data using
   VICON BodyBuilder and BodyLanguage model FoxedUp or BRILLIANT.MOD
:root
   order TX TY TZ RX RY RZ
   axis XYZ
   position 0 0 0  
   orientation 0 0 0 
:bonedata
  begin
     id 1 
     name lhipjoint
     direction 0.734343 -0.627749 0.258209 
     length 2.5437 
     axis 0 0 0  XYZ
  end
  begin
     id 2 
     name lfemur
     direction 0.34202 -0.939693 0  
     length 6.7391  
     axis 0 0 20  XYZ
    dof rx ry rz
    limits (-160.0 20.0)
           (-70.0 70.0)
           (-60.0 70.0)
  end
  begin
     id 3 
     name ltibia
     direction 0.34202 -0.939693 0   
     length 7.21536   
     axis 0 0 20   XYZ
    dof rx
    limits (-10.0 170.0)
  end
  begin
     id 4 
     name lfoot
     direction 0.0489572 -0.134509 0.989702   
     length 1.61313   
     axis -90 7.62852e-016 20   XYZ
    dof rx rz
    limits (-45.0 90.0)
           (-70.0 20.0)
  end
  begin
     id 5 
     name ltoes
     direction 1.53451e-011 -4.21692e-011 1   
     length 0.823104   
     axis -90 7.62852e-016 20   XYZ
    dof rx
    limits (-90.0 20.0)
  end
  begin
     id 6 
     name rhipjoint
     direction -0.746398 -0.615468 0.253157   
     length 2.59446  
     axis 0 0 0  XYZ 
  end
  begin
     id 7 
     name rfemur
     direction -0.34202 -0.939693 0   
     length 6.7075   
     axis 0 0 -20   XYZ
    dof rx ry rz
    limits (-160.0 20.0)
           (-70.0 70.0)
           (-70.0 60.0)
  end
  begin
     id 8 
     name rtibia
     direction -0.34202 -0.939693 0   
     length 7.27262   
     axis 0 0 -20   XYZ
    dof rx
    limits (-10.0 170.0)
 end
 begin
     id 9 
     name rfoot
     direction -0.0455203 -0.125066 0.991104   
     length 1.91095  
     axis -90 -7.62852e-016 -20   XYZ
    dof rx rz
    limits (-45.0 90.0)
           (-20.0 70.0)
  end
  begin
     id 10 
     name rtoes
     direction -1.53601e-011 -4.21913e-011 1   
     length 0.969037   
     axis -90 -7.62852e-016 -20   XYZ
    dof rx
    limits (-90.0 20.0)
  end
  begin
     id 11 
     name lowerback
     direction 0.0181546 0.999122 -0.0377542   
     length 1.99916   
     axis 0 0 0   XYZ
    dof rx ry rz
    limits (-20.0 45.0)
           (-30.0 30.0)
           (-30.0 30.0)
  end
  begin
     id 12 
     name upperback
     direction 0.0203486 0.99589 0.0882534   
     length 1.951   
     axis 0 0 0   XYZ
    dof rx ry rz
    limits (-20.0 45.0)
           (-30.0 30.0)
           (-30.0 30.0)
  end
  begin
     id 13 
     name thorax
     direction 0.0131685 0.994241 0.106355   
     length 1.97461   
     axis 0 0 0   XYZ
    dof rx ry rz
    limits (-20.0 45.0)
           (-30.0 30.0)
           (-30.0 30.0)
  end
  begin
     id 14 
     name lowerneck
     direction -0.0281395 0.999325 0.023617   
     length 1.7959   
     axis 0 0 0   XYZ
    dof rx ry rz
    limits (-20.0 45.0)
           (-30.0 30.0)
           (-30.0 30.0)
  end
  begin
     id 15 
     name upperneck
     direction 0.0288721 0.991984 -0.123019   
     length 1.79917   
     axis 0 0 0   XYZ
    dof rx ry rz
    limits (-20.0 45.0)
           (-30.0 30.0)
           (-30.0 30.0)
  end
  begin
     id 16
     name head
     direction 0.0133797 0.998944 -0.0439492  
     length 1.80902  
     axis 0 0 0   XYZ
    dof rx ry rz
    limits (-20.0 45.0)
           (-30.0 30.0)
           (-30.0 30.0)
  end
  begin
     id 17 
     name lclavicle
     direction 0.919195 0.377107 0.113449  
     length 3.17815  
     axis 0 0 0   XYZ
    dof ry rz
    limits (-20.0 10.0)
           (0.0 20.0)
  end
  begin
     id 18 
     name lhumerus
     direction 1 -4.48959e-011 2.13129e-027   
     length 4.84137   
     axis 180 -30 -90   XYZ
    dof rx ry rz
    limits (-60.0 90.0)
           (-90.0 90.0)
           (-90.0 90.0)
  end
  begin
     id 19
     name lradius
     direction 1 -4.48957e-011 -6.30627e-028   
     length 3.2452   
     axis 180 -30 -90   XYZ
    dof rx
    limits (-10.0 170.0)
  end
  begin
     id 20
     name lwrist
     direction 1 -4.4901e-011 9.13299e-027   
     length 1.6226   
     axis -6.84618e-015 90 90   XYZ
    dof ry
    limits (-180.0 0.0)
 end
  begin
     id 21 
     name lhand
     direction 1 -4.48816e-011 1.82293e-026   
     length 0.521221   
     axis -1.16502e-014 90 90   XYZ
    dof rx rz
    limits (-90.0 90.0)
           (-45.0 45.0)
  end
  begin
     id 22 
     name lfingers
     direction 1 -4.49108e-011 3.65687e-026   
     length 0.420221   
     axis -2.33008e-014 90 90   XYZ
    dof rx
    limits (0.0 90.0)
  end
  begin
     id 23
     name lthumb
     direction 0.707107 -6.34943e-011 0.707107   
     length 0.603356   
     axis -90 45 5.69224e-014   XYZ
    dof rx rz
    limits (-45.0 45.0)
           (-45.0 45.0)
  end
  begin
     id 24 
     name rclavicle
     direction -0.90847 0.38596 0.160368   
     length 3.12973  
     axis 0 0 0   XYZ 
    dof ry rz
    limits (-10.0 20.0)
           (-20.0 0.0)
  end
  begin
     id 25 
     name rhumerus
     direction -1 -4.48974e-011 4.47268e-028  
     length 4.72284   
     axis 180 30 90   XYZ
    dof rx ry rz
    limits (-90.0 60.0)
           (-90.0 90.0)
           (-90.0 90.0)
  end
  begin
     id 26 
     name rradius
     direction -1 -4.48969e-011 3.43203e-027   
     length 3.23459   
     axis 180 30 90   XYZ
    dof rx
    limits (-10.0 170.0)
  end
  begin
     id 27 
     name rwrist
     direction -1 -4.48969e-011 9.12911e-027   
     length 1.6173   
     axis -6.84618e-015 -90 -90   XYZ
    dof ry
    limits (-180.0 0.0)
  end
  begin
     id 28
     name rhand
     direction -1 -4.49194e-011 1.83006e-026   
     length 0.307416   
     axis -1.16502e-014 -90 -90   XYZ
    dof rx rz
    limits (-90.0 90.0)
           (-45.0 45.0)
  end
  begin
     id 29
     name rfingers
     direction -1 -4.48423e-011 3.63103e-026   
     length 0.247847   
     axis -2.33008e-014 -90 -90   XYZ
    dof rx
    limits (0.0 90.0)
  end
  begin
     id 30
     name rthumb
     direction -0.707107 -6.34802e-011 0.707107   
     length 0.35586   
     axis -90 -45 -5.69224e-014   XYZ
    dof rx rz
    limits (-45.0 45.0)
           (-45.0 45.0)
  end
:hierarchy
  begin
    root lhipjoint rhipjoint lowerback
    lhipjoint lfemur
    lfemur ltibia
    ltibia lfoot
    lfoot ltoes
    rhipjoint rfemur
    rfemur rtibia
    rtibia rfoot
    rfoot rtoes
    lowerback upperback
    upperback thorax
    thorax lowerneck lclavicle rclavicle
    lowerneck upperneck
    upperneck head
    lclavicle lhumerus
    lhumerus lradius
    lradius lwrist
    lwrist lhand lthumb
    lhand lfingers
    rclavicle rhumerus
    rhumerus rradius
    rradius rwrist
    rwrist rhand rthumb
    rhand rfingers
  end

#!OML:ASF H:\Terrain\Patient Classification 1\Animal1\Tuesday\Animal1.ASF
:FULLY-SPECIFIED
:DEGREES
646
root 12.6396 15.324 -14.1011 32.5097 -30.6098 -12.1272
lowerback 16.2909 -1.48371 7.39993
upperback 1.773 -0.39918 3.9393
thorax -7.26896 -0.383588 0.131401
lowerneck 9.85763 3.19612 -6.01974
upperneck -18.5971 4.65303 6.87343
head -7.63905 1.99739 2.82079
rclavicle -3.18055e-015 -2.127e-014
rhumerus -43.1693 26.0646 -96.7352
rradius 75.8965
rwrist 7.70403
rhand -18.5957 27.0509
rfingers 7.12502
rthumb 7.69542 -2.78904
lclavicle -3.18055e-015 -2.127e-014
lhumerus -51.7612 -0.901096 86.8323
lradius 73.5495
lwrist -28.9694
lhand -6.65924 48.5478
lfingers 7.12502
lthumb 19.1985 77.6202
rfemur -58.3675 18.6621 25.7805
rtibia 41.5813
rfoot -9.00563 -8.50305
rtoes -6.36865
lfemur -53.537 19.6786 -5.98742
ltibia 57.2504
lfoot -25.4119 14.0233
ltoes -15.3978
647
root 12.6295 15.3197 -14.0889 32.7283 -30.8264 -12.2062
lowerback 16.3717 -1.3912 7.29436
upperback 1.33055 -0.248958 3.93611
thorax -7.78753 -0.325062 0.165857
lowerneck 9.52468 3.19535 -5.90668
upperneck -18.7144 4.69133 6.87923
head -7.61739 2.01095 2.80495
rclavicle 1.15295e-014 -2.52457e-014
rhumerus -43.8258 25.9362 -97.0369
rradius 75.6858
rwrist 7.62637
rhand -18.4382 27.2768
rfingers 7.12502
rthumb 7.84738 -2.55757
lclavicle 1.15295e-014 -2.52457e-014
lhumerus -52.3341 -0.92737 86.8354
lradius 73.1177
lwrist -29.1859
lhand -6.59712 48.2203
lfingers 7.12502
lthumb 19.2583 77.2867
rfemur -58.4838 18.8658 25.7202
rtibia 41.5552
rfoot -8.98538 -8.54818
rtoes -6.97973
lfemur -53.5711 19.8974 -6.03575
ltibia 57.2292
lfoot -25.2348 14.3242
ltoes -16.5624
648
root 12.6202 15.3178 -14.075 33.0371 -30.9416 -12.3008
lowerback 16.2568 -1.35583 7.25493
upperback 0.893247 -0.178572 4.00237
thorax -8.19811 -0.303167 0.252371
lowerneck 9.05583 3.2243 -5.98066
upperneck -18.8501 4.75601 6.94227
head -7.58493 2.04733 2.83884
rclavicle -5.36719e-015 -8.0309e-014
rhumerus -44.487 25.9322 -97.2218
rradius 75.5927
rwrist 7.73519
rhand -18.0718 27.4451
rfingers 7.12502
rthumb 8.20108 -2.37572
lclavicle -5.36719e-015 -8.0309e-014
lhumerus -52.7785 -0.810701 86.8919
lradius 72.6622
lwrist -29.4601
lhand -6.30044 48.3584
lfingers 7.12502
lthumb 19.5435 77.3961
rfemur -58.6858 18.9939 25.6778
rtibia 41.4865
rfoot -9.12841 -8.42837
rtoes -6.29623
lfemur -53.7286 20.0458 -6.05107
ltibia 57.2148
lfoot -25.228 14.3647
ltoes -16.6165
649
root 12.6113 15.32 -14.0539 33.5338 -30.8169 -12.4085
lowerback 15.8329 -1.35527 7.37484
upperback 0.409689 -0.14766 4.15727
thorax -8.49014 -0.302623 0.350303
lowerneck 8.74112 3.24455 -6.08358
upperneck -19.185 4.80374 6.9914
head -7.6449 2.07365 2.8751
rclavicle -5.96354e-015 5.54609e-014
rhumerus -45.1251 25.9851 -97.307
rradius 75.5075
rwrist 7.75889
rhand -18.0882 27.3796
rfingers 7.12502
rthumb 8.18521 -2.44189
lclavicle -5.96354e-015 5.54609e-014
lhumerus -53.114 -0.732634 87.0882
lradius 72.1379
lwrist -29.7054
lhand -6.16007 48.5964
lfingers 7.12502
lthumb 19.6785 77.6204
rfemur -59.062 18.9465 25.7066
rtibia 41.3939
rfoot -9.2455 -8.25559
rtoes -5.08153
lfemur -54.1596 20.0345 -6.00524
ltibia 57.1577
lfoot -25.3088 14.1376
ltoes -15.4777
650
root 12.5998 15.3306 -14.0201 33.6215 -30.6359 -12.382
lowerback 15.6987 -1.36825 7.48559
upperback -0.0304641 -0.110672 4.28409
thorax -8.89818 -0.301786 0.427885
lowerneck 8.35721 3.18269 -6.05096
upperneck -19.404 4.74232 6.97104
head -7.64141 2.04668 2.87593
rclavicle 2.36554e-014 -1.98785e-016
rhumerus -45.776 25.9549 -97.3943
rradius 75.2822
rwrist 7.57465
rhand -18.2417 27.4724
rfingers 7.12502
rthumb 8.03708 -2.35483
lclavicle 2.36554e-014 -1.98785e-016
lhumerus -53.5116 -0.848289 87.3843
lradius 71.5185
lwrist -29.9404
lhand -6.73355 48.4613
lfingers 7.12502
lthumb 19.1271 77.5408
rfemur -58.9848 18.7511 25.8108
rtibia 41.3421
rfoot -9.27693 -8.23992
rtoes -4.67101
lfemur -54.1123 19.842 -5.93597
ltibia 57.0032
lfoot -25.5322 13.9065
ltoes -14.0687
651
root 12.5803 15.3433 -13.9862 33.3821 -30.4399 -12.295
lowerback 15.799 -1.4499 7.60017
upperback -0.388943 -0.150244 4.33146
thorax -9.35497 -0.339597 0.439191
lowerneck 7.92005 3.12079 -5.91493
upperneck -19.6077 4.68753 6.90004
head -7.62016 2.02066 2.84225
rclavicle 2.17669e-014 -8.84592e-014
rhumerus -46.4426 25.8949 -97.6364
rradius 74.9681
rwrist 7.39095
rhand -18.5628 28.0655
rfingers 7.12502
rthumb 7.72716 -1.77328
lclavicle 2.17669e-014 -8.84592e-014
lhumerus -53.9205 -1.05385 87.5317
lradius 70.8371
lwrist -30.1571
lhand -7.35334 48.2465
lfingers 7.12502
lthumb 18.531 77.3839
rfemur -58.5607 18.567 25.9671
rtibia 41.3487
rfoot -9.40345 -8.35399
rtoes -4.37975
lfemur -53.6621 19.6611 -5.84782
ltibia 56.7835
lfoot -25.567 14.0078
ltoes -14.819
652
root 12.5623 15.3458 -13.9635 33.3858 -30.099 -11.9347
lowerback 15.5601 -1.63769 7.64476
upperback -0.910129 -0.371399 4.32348
thorax -9.81 -0.463686 0.471332
lowerneck 7.75307 3.1643 -5.81193
upperneck -20.0718 4.78069 6.86012
head -7.7458 2.0566 2.80992
rclavicle 3.44891e-014 1.88845e-014
rhumerus -47.1496 25.8126 -98.029
rradius 74.6591
rwrist 7.43725
rhand -18.8739 28.3969
rfingers 7.12502
rthumb 7.42686 -1.45276
lclavicle 3.44891e-014 1.88845e-014
lhumerus -54.3219 -1.22567 87.6132
lradius 70.0495
lwrist -30.1451
lhand -7.43125 48.7079
lfingers 7.12502
lthumb 18.456 77.8524
rfemur -58.6983 18.2241 25.8102
rtibia 41.4147
rfoot -9.51682 -8.509
rtoes -4.39783
lfemur -53.8216 19.3002 -6.03785
ltibia 56.5676
lfoot -25.5579 13.9449
ltoes -14.6268
653
root 12.5462 15.3473 -13.9436 33.5888 -30.0087 -11.7096
lowerback 15.2572 -1.67447 7.59332
upperback -1.47134 -0.416795 4.31041
thorax -10.2645 -0.500193 0.509938
lowerneck 7.64971 3.23812 -5.46239
upperneck -20.5841 4.90076 6.55982
head -7.88932 2.10833 2.64592
rclavicle 7.16619e-014 2.22639e-014
rhumerus -47.7479 25.5721 -98.3409
rradius 74.2713
rwrist 7.55188
rhand -19.3103 27.7027
rfingers 7.12502
rthumb 7.0056 -2.16134
lclavicle 7.16619e-014 2.22639e-014
lhumerus -54.6767 -1.47485 87.7847
lradius 69.2681
lwrist -30.0127
lhand -7.56407 49.0328
lfingers 7.12502
lthumb 18.3283 78.1893
rfemur -58.9944 18.0034 25.6814
rtibia 41.4789
rfoot -9.58714 -8.41273
rtoes -4.61817
lfemur -54.0725 19.1275 -6.22788
ltibia 56.4283
lfoot -25.616 13.9198
ltoes -13.9478
654
root 12.5294 15.3491 -13.9231 33.9189 -30.0843 -11.8882
lowerback 15.0644 -1.58028 7.66854
upperback -1.98076 -0.25242 4.36162
thorax -10.718 -0.442528 0.499523
lowerneck 7.3527 3.26874 -5.13515
upperneck -20.9551 4.95015 6.23807
head -7.94581 2.13459 2.48612
rclavicle 6.80837e-014 -6.55989e-015
rhumerus -48.298 25.3922 -98.5338
rradius 73.8503
rwrist 7.38293
rhand -19.9383 25.9041
rfingers 7.12502
rthumb 6.39935 -3.97922
lclavicle 6.80837e-014 -6.55989e-015
lhumerus -55.0011 -1.70428 87.951
lradius 68.5894
lwrist -30.0201
lhand -7.97095 48.5606
lfingers 7.12502
lthumb 17.9368 77.7534
rfemur -59.172 18.0465 25.8443
rtibia 41.5187
rfoot -9.74121 -8.12509
rtoes -4.06684
lfemur -54.1588 19.2908 -6.14377
ltibia 56.404
lfoot -25.5172 14.2129
ltoes -15.1021
655
root 12.5104 15.3484 -13.8975 34.2186 -30.0629 -12.1203
lowerback 14.8992 -1.54048 7.82966
upperback -2.5113 -0.134349 4.46449
thorax -11.2183 -0.412653 0.512111
lowerneck 7.04686 3.23034 -5.38619
upperneck -21.2788 4.92699 6.47617
head -8.00801 2.11984 2.61812
rclavicle -1.25234e-014 8.64713e-015
rhumerus -48.9977 25.3891 -98.7539
rradius 73.4525
rwrist 7.01049
rhand -20.0219 24.7049
rfingers 7.12502
rthumb 6.31863 -5.18086
lclavicle -1.25234e-014 8.64713e-015
lhumerus -55.4469 -1.83742 88.1348
lradius 68.0366
lwrist -30.1822
lhand -7.87518 48.2775
lfingers 7.12502
lthumb 18.0289 77.4619
rfemur -59.2342 18.1025 26.0784
rtibia 41.5257
rfoot -9.91664 -8.04169
rtoes -3.74681
lfemur -54.2424 19.4601 -5.97422
ltibia 56.4229
lfoot -25.384 14.4097
ltoes -16.0926
656
root 12.4872 15.3534 -13.8645 34.3152 -30.2098 -12.0185
lowerback 14.6056 -1.49554 7.72005
upperback -2.99913 -0.0923264 4.42429
thorax -11.5965 -0.402885 0.531544
lowerneck 6.69437 3.19186 -5.38923
upperneck -21.4558 4.92384 6.64856
head -8.00614 2.10403 2.68373
rclavicle -4.37823e-014 -3.56818e-014
rhumerus -49.7045 25.3538 -99.0309
rradius 73.086
rwrist 6.82291
rhand -19.7014 24.8219
rfingers 7.12502
rthumb 6.6281 -5.05433
lclavicle -4.37823e-014 -3.56818e-014
lhumerus -55.8103 -2.08338 88.2568
lradius 67.4969
lwrist -30.284
lhand -7.34891 48.2519
lfingers 7.12502
lthumb 18.5352 77.3888
rfemur -59.2299 18.1185 25.9817
rtibia 41.52
rfoot -9.96798 -8.09327
rtoes -4.1743
lfemur -54.204 19.5355 -6.13631
ltibia 56.4047
lfoot -25.2813 14.5151
ltoes -16.4312
657
root 12.4645 15.3595 -13.8328 34.368 -30.5055 -11.7623
lowerback 14.2121 -1.45826 7.43428
upperback -3.44296 -0.116362 4.31231
thorax -11.8662 -0.411177 0.58141
lowerneck 6.03489 3.19708 -4.97016
upperneck -21.3352 4.96322 6.46459
head -7.8332 2.11736 2.55552
rclavicle 7.29043e-014 1.81888e-014
rhumerus -50.3133 25.4688 -99.3519
rradius 72.7636
rwrist 6.69577
rhand -19.5289 25.0776
rfingers 7.12502
rthumb 6.79462 -4.79334
lclavicle 7.29043e-014 1.81888e-014
lhumerus -55.9434 -2.17335 88.2135
lradius 66.8167
lwrist -30.3399
lhand -7.20159 48.1498
lfingers 7.12502
lthumb 18.6769 77.2732
rfemur -59.3051 18.0968 25.7224
rtibia 41.538
rfoot -10.0378 -7.95068
rtoes -4.38981
lfemur -54.0949 19.6107 -6.49764
ltibia 56.324
lfoot -25.1877 14.6809
ltoes -17.019
658
root 12.4431 15.3631 -13.8041 34.4558 -30.7253 -11.7673
lowerback 13.951 -1.43904 7.35211
upperback -3.86867 -0.103289 4.30572
thorax -12.1968 -0.412773 0.6288
lowerneck 5.3714 3.16698 -4.92198
upperneck -21.2579 4.94057 6.48188
head -7.68462 2.11145 2.56404
rclavicle -5.59579e-014 5.76476e-014
rhumerus -50.8495 25.7153 -99.654
rradius 72.3846
rwrist 6.46561
rhand -19.3844 25.0133
rfingers 7.12502
rthumb 6.93413 -4.85315
lclavicle -5.59579e-014 5.76476e-014
lhumerus -56.0627 -2.04511 88.1735
lradius 66.1053
lwrist -30.4808
lhand -7.56695 47.8195
lfingers 7.12502
lthumb 18.3255 76.9763
rfemur -59.2366 18.0972 25.7897
rtibia 41.5562
rfoot -10.1913 -7.73067
rtoes -4.29839
lfemur -53.8721 19.8141 -6.59108
ltibia 56.224
lfoot -25.2145 14.7884
ltoes -17.6382
659
root 12.4217 15.3672 -13.7707 34.4712 -30.94 -11.8501
lowerback 13.7277 -1.38083 7.37165
upperback -4.25519 -0.0185914 4.29619
thorax -12.5047 -0.387468 0.598379
lowerneck 5.01287 3.17428 -4.88044
upperneck -21.4126 4.97047 6.49619
head -7.67197 2.1229 2.56602
rclavicle -3.50855e-014 3.26007e-014
rhumerus -51.2608 25.8019 -99.9166
rradius 71.8645
rwrist 6.36197
rhand -19.0872 24.7391
rfingers 7.12502
rthumb 7.22095 -5.11772
lclavicle -3.50855e-014 3.26007e-014
lhumerus -56.314 -2.06118 88.158
lradius 65.6212
lwrist -30.7435
lhand -7.45272 47.7523
lfingers 7.12502
lthumb 18.4354 76.8987
rfemur -59.0094 18.1458 25.9323
rtibia 41.5752
rfoot -10.2971 -7.64026
rtoes -4.6898
lfemur -53.5211 20.0681 -6.60475
ltibia 56.1438
lfoot -25.385 14.7339
ltoes -17.426
660
root 12.3992 15.3676 -13.7323 34.5678 -31.1891 -11.9668
lowerback 13.368 -1.31628 7.36
upperback -4.62973 0.0527781 4.29548
thorax -12.7173 -0.364098 0.594462
lowerneck 4.71291 3.24462 -4.64069
upperneck -21.5502 5.07831 6.35242
head -7.66064 2.16912 2.47429
rclavicle -4.40805e-014 -1.40143e-014
rhumerus -51.5787 25.9107 -100.222
rradius 71.1975
rwrist 6.31313
rhand -19.0264 24.6642
rfingers 7.12502
rthumb 7.27966 -5.19055
lclavicle -4.40805e-014 -1.40143e-014
lhumerus -56.6127 -1.96433 88.0046
lradius 65.109
lwrist -31.0774
lhand -7.01884 47.3661
lfingers 7.12502
lthumb 18.8527 76.4725
rfemur -58.8761 18.3023 25.9818
rtibia 41.6101
rfoot -10.4296 -7.45795
rtoes -4.86103
lfemur -53.2377 20.3557 -6.62037
ltibia 56.0936
lfoot -25.5045 14.7528
ltoes -17.3586
